<svg xmlns="http://www.w3.org/2000/svg" width="1440" height="900" viewBox="0 0 1440 900"><rect width="1440" height="900" fill="#111311"/><g font-family="monospace"><text x="72" y="72" fill="#f07a58" font-size="12" letter-spacing="3">LOCAL IMAGE STUDIO</text><text x="72" y="152" fill="#ecebe6" font-family="Georgia,serif" font-size="92" font-weight="bold">Canvas<tspan fill="#92938e" font-weight="normal"> / </tspan><tspan fill="#ecebe6">AI</tspan></text><text x="1260" y="142" fill="#92938e" font-size="12">● READY</text><path d="M72 194H1368" stroke="#30322e"/><rect x="72" y="250" width="330" height="180" rx="14" fill="#171916" stroke="#30322e"/><text x="92" y="278" fill="#92938e" font-size="11" letter-spacing="1">DESCRIBE AN IMAGE</text><text x="92" y="322" fill="#ecebe6" font-family="Georgia,serif" font-size="21">A quiet Japanese garden</text><text x="92" y="352" fill="#ecebe6" font-family="Georgia,serif" font-size="21">at blue hour...</text><rect x="92" y="386" width="290" height="30" rx="8" fill="#ecebe6"/><text x="200" y="406" fill="#111311" font-size="11">GENERATE  ↗</text><rect x="450" y="250" width="918" height="570" rx="22" fill="#282b27"/><circle cx="909" cy="520" r="68" fill="#4d675c"/><circle cx="909" cy="520" r="38" fill="#d7a86e"/><path d="M450 690 Q700 530 920 690 T1368 650 V820 H450Z" fill="#1c2825"/><text x="802" y="760" fill="#a6a49d" font-size="11">GENERATED IMAGE PREVIEW</text><path d="M72 500H402" stroke="#30322e"/><text x="72" y="535" fill="#92938e" font-size="11" letter-spacing="1">RECENT PROMPTS</text><rect x="72" y="560" width="330" height="38" rx="9" fill="#171916" stroke="#30322e"/><rect x="72" y="608" width="330" height="38" rx="9" fill="#171916" stroke="#30322e"/><text x="92" y="584" fill="#ecebe6" font-size="11">A futuristic coastal city after rain</text><text x="92" y="632" fill="#ecebe6" font-size="11">A desert observatory under stars</text></g></svg>
